<?xml version="1.0" encoding="UTF-8"?>
<svg id="Layer_1" xmlns="http://www.w3.org/2000/svg" version="1.1" viewBox="0 0 78.2 64">
  <!-- Generator: Adobe Illustrator 30.8.0, SVG Export Plug-In . SVG Version: 2.1.4 Build 114)  -->
  <defs>
    <style>
      .st0 {
        fill: #203a72;
      }

      .st1 {
        fill: #fff;
      }

      .st2 {
        fill: #f7931e;
      }

      .st3 {
        fill: #f6242d;
        stroke: #fff;
        stroke-miterlimit: 10;
        stroke-width: 3.8px;
      }
    </style>
  </defs>
  <g>
    <g>
      <path class="st2" d="M62.3,32c-3.2,0-4.9,1.4-6.2,2.3-1,.8-1.7,1.3-3.2,1.3s-2.1-.5-3.2-1.3c-1.3-1-3-2.3-6.2-2.3s-4.9,1.4-6.2,2.3c-1,.8-1.7,1.3-3.2,1.3s-2.1-.5-3.2-1.3c-1.3-1-3-2.3-6.2-2.3s-4.9,1.4-6.2,2.3c-1,.8-1.7,1.3-3.2,1.3s-2.1-.5-3.2-1.3c-1.3-1-3-2.3-6.2-2.3s-2.5,1.1-2.5,2.5,1.1,2.5,2.5,2.5,2.1.5,3.2,1.3c1.3,1,3,2.3,6.2,2.3s4.9-1.4,6.2-2.3c1-.8,1.7-1.3,3.2-1.3s2.1.5,3.2,1.3c1.3,1,3,2.3,6.2,2.3s4.9-1.4,6.2-2.3c1-.8,1.7-1.3,3.2-1.3s2.1.5,3.2,1.3c1.3,1,3,2.3,6.2,2.3s4.9-1.4,6.2-2.3c1-.8,1.7-1.3,3.2-1.3s2.5-1.1,2.5-2.5-1.1-2.5-2.5-2.5Z"/>
      <path class="st0" d="M24.8,28.1c4.5,0,7.1,2,8.6,3.2.1.1.5.3.7.5,0,0,.2,0,.3,0,.2-.1.4-.3.6-.5,1.5-1.2,4.1-3.2,8.6-3.2s4.2.5,5.6,1.2l-9.9-12.2c-1.3-1.6-3.1-2.7-5.1-3.2l-8.8-2.1c-1-.2-2.1,0-2.9.6l-7.3,5.1c-1.7,1.1-2.1,3.4-.9,5.1,1.1,1.7,3.4,2.1,5.1.9l5.9-4.1,5,1.2-8.9,8c1-.3,2.1-.4,3.4-.4Z"/>
      <path class="st0" d="M51.1,23.6c4.3,0,7.7-3.5,7.7-7.7s-3.5-7.7-7.7-7.7-7.7,3.4-7.7,7.7,3.5,7.7,7.7,7.7Z"/>
    </g>
    <ellipse class="st3" cx="62.4" cy="43.1" rx="11.3" ry="11.2"/>
    <path class="st2" d="M62.4,31.8c-6.2,0-11.3,5-11.3,11.2s5.1,11.2,11.3,11.2,11.3-5,11.3-11.2-5.1-11.2-11.3-11.2Z"/>
    <path class="st1" d="M69.9,48.3l-6.8-13.3c-.4-.7-1-.7-1.4,0l-6.8,13.3c-.4.7,0,1.3.8,1.3h13.2c.8,0,1.2-.6.8-1.3Z"/>
  </g>
  <path class="st2" d="M61.8,43.6l-.2-2.8c0-.5,0-.9,0-1.2s0-.6.3-.8.4-.3.7-.3.6.1.7.3.2.6.2,1,0,.5,0,.8l-.3,2.9c0,.3,0,.6-.2.8s-.2.3-.4.3-.4,0-.4-.3-.1-.4-.2-.8ZM62.4,47.5c-.2,0-.4,0-.6-.2s-.3-.4-.3-.6,0-.4.3-.6.4-.3.6-.3.5,0,.6.3.3.4.3.6,0,.5-.3.6-.4.2-.6.2Z"/>
</svg>